<?xml version="1.0" encoding="UTF-8"?>
<svg xmlns="http://www.w3.org/2000/svg" width="100" height="64" viewBox="0 0 100 64" fill="none">
  <path d="M15.9823 42.8789H21.1575L16.1313 21.1205H10.2363L0 42.8789H5.474L7.24855 38.6389H15.0826L15.9823 42.8789ZM9.2554 33.843L12.413 26.297H12.4627L14.0647 33.843H9.2554Z" fill="black"></path>
  <path d="M37.2096 37.8158H21.9162L21.1575 42.8789H36.4496L37.2096 37.8158ZM38.9533 26.1822H23.6606L24.4199 21.1205H39.7127L38.9533 26.1822ZM35.8661 34.5305H22.4084L23.1684 29.4688H36.6262L35.8661 34.5305Z" fill="black"></path>
  <path d="M54.0621 37.3001C52.6031 37.9735 50.425 38.0837 49.3575 38.0837C45.9145 38.0837 43.635 35.7351 43.7505 32.2444C43.8735 28.5583 46.6597 25.9157 50.4438 25.9157C52.2331 25.9157 53.8076 26.5065 55.2202 27.7003L56.2676 22.4908C54.1064 21.2178 52.2929 20.6961 50.0282 20.6961C43.7633 20.6961 38.5934 25.9157 38.3752 32.4733C38.1644 38.8336 42.2989 43.3039 48.4403 43.3039C49.5079 43.3039 51.8182 43.1923 53.2752 42.5197L54.0621 37.3001Z" fill="black"></path>
  <path d="M67.0673 20.7485C72.8864 21.1621 76.4865 25.8989 75.8372 32.231C75.1652 38.7571 69.8993 43.6154 63.9607 43.1917C58.1402 42.7782 54.5408 38.0413 55.1914 31.7093C55.8614 25.1838 61.1273 20.3248 67.0673 20.7485ZM70.66 32.76C71.4509 29.0814 70.0812 26.2158 67.3009 25.6491C64.2453 25.022 61.4664 27.3625 60.6284 31.25C59.8355 34.9294 61.2052 37.7943 63.9855 38.3636C67.0438 38.9867 69.8221 36.6475 70.66 32.76Z" fill="black"></path>
  <path d="M100 42.8789L99.6012 21.1191H94.6952L88.4148 33.3932L85.8796 21.1191H80.979L74.2185 42.8789H79.6267L83.3054 30.1395L85.617 42.8789H88.3732L94.7496 30.1449L94.6737 42.8789H100Z" fill="black"></path>
</svg>
