<svg xmlns="http://www.w3.org/2000/svg" width="140" height="22" fill="none"><path fill="gold" d="M138.049 17.835h-24.226a3.497 3.497 0 0 1-1.664 2.044l24.458-.508a1.662 1.662 0 0 0 1.595-1.336.165.165 0 0 0-.163-.2Z"/><path fill="#00D1FF" d="M113.823 17.835H89.58l-.001.01c-.27 1.214-1.557 2.081-2.275 2.549l24.855-.514a3.488 3.488 0 0 0 1.664-2.045Z"/><path fill="#6559FF" d="M68.71 17.835a3.503 3.503 0 0 0-3.433 2.814.166.166 0 0 0 .167.201l21.864-.453a3.505 3.505 0 0 0 2.274-2.55c0-.003 0-.007.002-.01H68.709v-.002Z"/><path fill="#293745" d="M138.601 5.306c-.934-.911-2.146-1.365-3.641-1.365a7.12 7.12 0 0 0-2.717.517c-.842.344-1.555.81-2.141 1.405a6.453 6.453 0 0 0-1.385 2.118 6.794 6.794 0 0 0-.507 2.615c0 .91.203 1.739.608 2.485a4.524 4.524 0 0 0 1.739 1.774c.754.436 1.606.654 2.555.654 1.402 0 2.665-.355 3.789-1.067.967-.612 1.631-1.224 2.154-2.19a.324.324 0 0 0 .04-.166.331.331 0 0 0-.169-.286.336.336 0 0 0-.166-.044h-2.802a.673.673 0 0 0-.481.208c-.171.17-.344.25-.633.393-.383.189-.808.193-1.26.193-.643 0-1.135-.164-1.475-.493-.34-.326-.514-.81-.522-1.453h6.732c.887 0 1.636-.691 1.676-1.578.004-.097.006-.194.004-.29.002-1.377-.464-2.52-1.398-3.43Zm-2.178 3.221h-4.087a.166.166 0 0 1-.085-.023.171.171 0 0 1-.084-.149.17.17 0 0 1 .025-.084 3.21 3.21 0 0 1 .902-.993c.432-.309.936-.46 1.512-.46.584 0 1.047.144 1.39.437.301.255.497.61.592 1.068a.17.17 0 0 1-.165.204ZM40.16 3.94a7.116 7.116 0 0 0-2.717.517c-.842.344-1.557.81-2.142 1.406a6.47 6.47 0 0 0-1.384 2.117 6.798 6.798 0 0 0-.507 2.615c0 .91.203 1.739.608 2.485a4.512 4.512 0 0 0 1.74 1.774c.753.436 1.605.654 2.554.654 1.402 0 2.665-.355 3.788-1.066.968-.612 1.632-1.224 2.155-2.19a.338.338 0 0 0-.295-.497h-2.803a.682.682 0 0 0-.48.208c-.172.172-.344.25-.633.393-.383.189-.808.193-1.261.193-.642 0-1.134-.164-1.474-.493-.31-.294-.48-.719-.515-1.272a.17.17 0 0 1 .1-.166.169.169 0 0 1 .068-.015h6.557c.887 0 1.635-.691 1.675-1.578.005-.097.007-.194.005-.29 0-1.375-.466-2.519-1.4-3.43-.931-.909-2.145-1.365-3.64-1.365Zm1.463 4.588h-4.087a.17.17 0 0 1-.145-.256c.241-.406.541-.736.902-.993.433-.309.936-.46 1.512-.46.584 0 1.047.144 1.39.437.301.255.498.61.592 1.068a.167.167 0 0 1-.034.141.168.168 0 0 1-.13.063Zm-7.704-2.526.229-1.15a.335.335 0 0 0-.329-.4h-1.982a.167.167 0 0 1-.164-.2l.1-.528c.051-.282.176-.505.374-.667.196-.164.44-.245.728-.245h.29c.798 0 1.486-.562 1.644-1.343l.216-1.065A.336.336 0 0 0 34.697 0h-2.195c-1.133 0-2.047.292-2.742.874-.694.583-1.147 1.415-1.356 2.495l-.19.946a.166.166 0 0 1-.164.134h-.885c-.48 0-.892.338-.987.808l-.337 1.69a.335.335 0 0 0 .328.4h1.195c.106 0 .184.097.164.201l-1.442 7.21a.334.334 0 0 0 .329.4h1.823c.8 0 1.486-.563 1.645-1.347l1.266-6.33a.166.166 0 0 1 .164-.134h.965A1.671 1.671 0 0 0 33.918 6ZM100.337.373h-1.814c-.8 0-1.487.563-1.645 1.348l-2.447 12.236a1.008 1.008 0 0 0 .986 1.204h2.095a.335.335 0 0 0 .329-.27L100.665.776a.333.333 0 0 0-.185-.37.335.335 0 0 0-.143-.033Zm8.32 3.92h-2.187a.169.169 0 0 1-.163-.126.18.18 0 0 1-.002-.073l.509-2.573a.33.33 0 0 0-.185-.369.337.337 0 0 0-.143-.032h-.21a.33.33 0 0 0-.225.087l-5.819 5.278-.087.435a.341.341 0 0 0 .185.369.335.335 0 0 0 .144.032h1.42c.106 0 .186.095.165.198l-.225 1.118a128.377 128.377 0 0 0-.448 2.314c-.056.3-.088.604-.094.908 0 1.017.319 1.82.958 2.412.638.594 1.518.889 2.638.889h.649c.799 0 1.488-.563 1.645-1.348l.298-1.493a.33.33 0 0 0-.185-.368.331.331 0 0 0-.143-.033h-.918c-.392 0-.694-.09-.904-.27-.209-.179-.315-.44-.315-.781 0-.161.217-1.298.651-3.412a.171.171 0 0 1 .164-.136h1.256c.8 0 1.489-.565 1.646-1.352l.253-1.275a.33.33 0 0 0-.185-.367.328.328 0 0 0-.143-.031Zm-54.508 0h-2.188a.168.168 0 0 1-.164-.2l.51-2.572a.336.336 0 0 0-.33-.401h-.209a.325.325 0 0 0-.225.087l-5.819 5.278-.087.435a.335.335 0 0 0 .328.4h1.42c.107 0 .187.096.165.2l-.224 1.117a122.104 122.104 0 0 0-.448 2.314c-.062.357-.094.66-.094.908 0 1.017.319 1.82.958 2.412.638.594 1.517.889 2.638.889h.649c.799 0 1.486-.563 1.645-1.348l.298-1.493a.335.335 0 0 0-.328-.4h-.917c-.393 0-.695-.091-.905-.271-.21-.179-.315-.44-.315-.781 0-.161.217-1.298.65-3.412a.17.17 0 0 1 .165-.136h1.255c.802 0 1.49-.565 1.647-1.352l.252-1.275a.332.332 0 0 0-.327-.398Zm66.288 0h-1.821c-.801 0-1.489.565-1.645 1.35l-.9 4.527c-.125.615-.38 1.115-.762 1.5a1.862 1.862 0 0 1-1.362.574c-.931 0-1.396-.415-1.396-1.248 0-.104.011-.232.03-.384.033-.21.422-2.182 1.168-5.917a.341.341 0 0 0-.185-.368.33.33 0 0 0-.143-.032H111.6c-.795 0-1.484.56-1.643 1.34l-.244 1.204a206.928 206.928 0 0 0-.683 3.398 6.404 6.404 0 0 0-.113 1.131c0 1.232.416 2.23 1.248 2.993.833.763 1.939 1.145 3.321 1.145 1.598 0 2.935-.418 4.009-1.253 1.075-.835 1.763-2.002 2.064-3.503l1.207-6.054a.334.334 0 0 0-.185-.37.34.34 0 0 0-.144-.032Zm-25.705 0H92.91c-.8 0-1.49.565-1.645 1.35l-.901 4.527c-.125.615-.379 1.115-.761 1.5a1.855 1.855 0 0 1-1.361.574c-.932 0-1.397-.415-1.397-1.248 0-.104.01-.232.03-.384.032-.21.421-2.182 1.169-5.917a.335.335 0 0 0-.33-.4h-1.82c-.796 0-1.484.56-1.643 1.34l-.245 1.204c-.238 1.13-.465 2.264-.683 3.398-.07.373-.108.752-.112 1.131 0 1.232.415 2.23 1.248 2.993.832.763 1.938 1.145 3.321 1.145 1.598 0 2.935-.418 4.01-1.253 1.074-.835 1.762-2.002 2.062-3.503l1.207-6.054a.336.336 0 0 0-.328-.402Zm34.004 1.912.311-1.56a.334.334 0 0 0-.329-.403h-.642c-1.18 0-2.194.336-3.041 1.008-.091.075-.231.026-.262-.088l-.177-.626a.339.339 0 0 0-.324-.244h-.747a1.68 1.68 0 0 0-1.646 1.348l-1.661 8.317a.994.994 0 0 0 .208.834 1.007 1.007 0 0 0 .777.37h2.095a.336.336 0 0 0 .329-.27l1.095-5.46c.151-.662.409-1.14.777-1.434.367-.294.883-.442 1.552-.442h.038c.802 0 1.492-.566 1.647-1.35ZM7.399.785c-1.212 0-2.27.186-3.17.56-.9.374-1.612.95-2.136 1.728-.525.78-.787 1.72-.787 2.821 0 1.364.84 2.349 2.058 2.87.917.393 1.921.539 2.863.867.782.272 1.424.835 1.01 1.71-.312.658-1.091.959-1.782.959-1.016 0-1.46-.87-1.623-1.323a.333.333 0 0 0-.38-.213l-3.045.591a.504.504 0 0 0-.403.554c.106.949.53 1.997 1.28 2.599.873.705 2.07 1.056 3.59 1.056 1.252 0 2.357-.203 3.318-.608a5.093 5.093 0 0 0 3.086-4.128c.089-.82-.07-1.661-.49-2.35a3.07 3.07 0 0 0-.877-.933c-1.104-.763-2.5-.857-3.728-1.33-.373-.145-.84-.338-.983-.748-.183-.528.166-1.078.635-1.316.407-.208.987-.259 1.43-.158.534.121.847.529.9 1.024.02.19.208.316.396.28l2.967-.577a.506.506 0 0 0 .406-.546C11.647 1.329 8.755.785 7.399.785Zm58.768 3.509h-1.798c-.59 0-1.137.309-1.438.816l-2.822 4.714a.167.167 0 0 1-.309-.052l-.836-4.133a1.676 1.676 0 0 0-1.643-1.344H55.81a.67.67 0 0 0-.65.835l2.304 9.116-1.235 2.073a3.352 3.352 0 0 0-.102 3.246l.566 1.106a.246.246 0 0 0 .393.063.187.187 0 0 0 .037-.046l2.07-3.322.117-.187 7.427-11.86a.673.673 0 0 0-.57-1.025Zm11.704.57c.411.36.694.83.85 1.406a.34.34 0 0 0 .388.247l2.781-.53a.502.502 0 0 0 .406-.551c-.094-.836-.548-2.614-2.65-3.947-.915-.579-2-.786-3.16-.786a8.917 8.917 0 0 0-3.42.664c-1.08.442-2.01 1.041-2.79 1.798a8.35 8.35 0 0 0-1.856 2.731 8.453 8.453 0 0 0-.688 3.386c0 1.166.26 2.22.782 3.16 1.468 2.651 4.879 3.601 7.684 2.933 2.4-.572 5.592-2.533 6.02-6.324.054-.471-.446-.574-.678-.18-1.71 2.905-6.402 5.07-8.953 2.54-1.72-1.706-1.101-4.012.041-5.467 1.133-1.45 3.688-2.441 5.243-1.08Zm-53.712-.57h-1.152a.67.67 0 0 0-.568.314l-.348.556a.169.169 0 0 1-.263.027c-.83-.828-1.892-1.242-3.183-1.242a6.382 6.382 0 0 0-2.505.507 6.666 6.666 0 0 0-2.094 1.38 6.434 6.434 0 0 0-1.425 2.131 6.828 6.828 0 0 0-.53 2.685c0 1.446.45 2.618 1.352 3.512.9.894 2.047 1.342 3.434 1.342a5.961 5.961 0 0 0 3.38-1.035.168.168 0 0 1 .26.102l.068.322a.339.339 0 0 0 .33.267h.926a1.68 1.68 0 0 0 1.646-1.348l1.66-8.316a1.01 1.01 0 0 0-.988-1.204Zm-4.26 7.044c-.593.616-1.289.924-2.087.924-.629 0-1.13-.182-1.503-.55-.374-.367-.56-.852-.56-1.453 0-.833.293-1.555.88-2.167.585-.612 1.275-.92 2.066-.92.63 0 1.136.184 1.518.556.384.37.576.856.576 1.458 0 .819-.298 1.537-.889 2.153Z"/></svg>
