<?xml version="1.0" encoding="UTF-8"?>
<svg xmlns="http://www.w3.org/2000/svg" width="100" height="64" viewBox="0 0 100 64" fill="none">
  <path d="M3.8147e-06 18.2497H27.5005V45.7503H3.8147e-06V18.2497Z" fill="#EB0A1E"></path>
  <path d="M92.3793 32.8576L93.9223 28.8119L95.4628 32.8576H92.3793ZM95.5236 26.5145H92.3196L87.8423 37.4845H90.618L91.6377 34.8075H96.2055L97.2255 37.4845H100L95.5236 26.5145ZM72.9247 35.5772C71.1164 35.5772 69.6532 33.9461 69.6532 31.9332C69.6532 29.9203 71.1164 28.2879 72.9247 28.2879C74.7297 28.2879 76.1953 29.9201 76.1953 31.9332C76.1953 33.9463 74.7287 35.5772 72.9247 35.5772ZM72.9247 26.1372C69.7239 26.1372 67.1291 28.7319 67.1291 31.9319C67.1291 35.1319 69.7237 37.7252 72.9247 37.7252C76.1233 37.7252 78.7193 35.1319 78.7193 31.9319C78.7193 28.7319 76.1233 26.1372 72.9247 26.1372ZM50.0591 35.5772C48.254 35.5772 46.7897 33.9461 46.7897 31.9332C46.7897 29.9203 48.254 28.2879 50.0591 28.2879C51.8663 28.2879 53.3307 29.9201 53.3307 31.9332C53.3307 33.9463 51.8663 35.5772 50.0591 35.5772ZM50.0591 26.1372C46.8591 26.1372 44.2668 28.7319 44.2668 31.9319C44.2668 35.1319 46.8592 37.7252 50.0591 37.7252C53.2589 37.7252 55.8537 35.1319 55.8537 31.9319C55.8537 28.7319 53.2591 26.1372 50.0591 26.1372ZM64.3817 26.5132L61.5425 30.9516L58.7012 26.5132H55.924L60.3193 33.3925V37.4832H62.7636V33.3947L67.1583 26.5144L64.3817 26.5132ZM88.4263 26.5132H79.0476V28.6168H82.5213V37.4832H84.968V28.6165H88.4267V26.5147L88.4263 26.5132ZM34.3756 28.6167H37.8503V37.4831H40.2956V28.618H43.7553V26.5147H34.3753L34.3756 28.6167Z" fill="black"></path>
  <path d="M13.7503 25.7571C8.55787 25.7571 4.5836 28.4347 4.5836 32C4.5836 35.448 8.45654 38.2429 13.7503 38.2429C19.044 38.2429 22.9169 35.4479 22.9169 32C22.9169 28.4347 18.9425 25.7571 13.7503 25.7571ZM19.466 28.4347C19.6571 29.2043 18.7607 30.1663 15.8761 30.4808C15.6841 28.5208 15.1028 26.8648 14.1393 26.5141C15.4364 26.5507 16.666 26.7701 17.738 27.1589C18.7404 27.5371 19.3633 28.0196 19.466 28.4347ZM15.1935 31.9699C15.1935 34.4533 14.4476 35.4827 13.7503 35.4827C13.0529 35.4827 12.3071 34.4533 12.3071 31.9699L12.3072 31.944C12.7707 31.9832 13.2531 32.0037 13.7503 32.0037C14.2475 32.0037 14.7299 31.9832 15.1933 31.944L15.1935 31.9699ZM13.7497 30.5856C13.2633 30.5856 12.8135 30.5717 12.3975 30.5461C12.6165 28.9221 13.1985 27.9781 13.7501 27.9781C14.3017 27.9781 14.8837 28.9221 15.1028 30.5461C14.6868 30.5719 14.2367 30.5856 13.7497 30.5856ZM8.03361 28.4347C8.13627 28.0217 8.75307 27.542 9.74654 27.1645C10.8221 26.772 12.0577 26.5507 13.3599 26.5139C12.3963 26.8645 11.8151 28.5205 11.6229 30.4805C8.73787 30.1661 7.84121 29.2041 8.03227 28.4344L8.03361 28.4347ZM5.93534 31.7751C5.93534 30.7237 6.28734 29.8151 6.90001 29.0628C6.97934 30.4568 8.86494 31.4964 11.5536 31.8615L11.5532 31.97C11.5532 35.3333 12.4155 37.1163 13.3712 37.4847C9.2668 37.3372 5.9352 34.8091 5.9352 31.7753L5.93534 31.7751ZM14.1124 37.4849C15.0748 37.1007 15.9473 35.1876 15.9473 31.9699L15.9469 31.8613C18.6356 31.4964 20.5212 30.4568 20.6005 29.0627C21.2131 29.8149 21.5652 30.7236 21.5652 31.7749C21.5652 34.8129 18.2245 37.3437 14.1124 37.4849Z" fill="white"></path>
</svg>
